<svg width="59" height="72" viewBox="0 0 59 72" fill="none" xmlns="http://www.w3.org/2000/svg">
<path d="M58.1639 37.6902C58.1658 36.9832 58.0082 36.2849 57.7027 35.6472C57.3973 35.0096 56.9519 34.4491 56.3998 34.0074L37.6385 19.0061L37.3424 16.5853C37.2246 15.5137 37.0353 14.4512 36.7758 13.4048C35.9663 9.74788 34.253 6.35225 31.7925 3.52838C29.2172 0.695517 26.101 -0.502001 23.1909 0.180462C20.2808 0.862925 18.0402 3.32237 17.023 7.08235C16.0953 10.7023 16.0953 14.4977 17.023 18.1176C17.2545 19.1105 17.5514 20.0869 17.9115 21.0407L1.71264 34.0074C0.746858 34.791 0.131021 35.9255 3.96818e-05 37.1622C-0.116384 38.1852 0.11007 39.2178 0.643873 40.0981L1.04305 40.6003L1.4036 41.051C2.27439 41.8812 3.43248 42.3426 4.63564 42.3386H6.91481V66.0188C6.91819 67.4841 7.50087 68.8885 8.53574 69.9258C9.5706 70.9631 10.9737 71.549 12.4389 71.5558H45.5706C47.037 71.549 48.4414 70.9635 49.4783 69.9266C50.5152 68.8897 51.1007 67.4852 51.1075 66.0188V42.3386H53.3867C54.0056 42.3472 54.6201 42.2337 55.1952 42.0047C55.7702 41.7757 56.2945 41.4356 56.7382 41.0039C57.1818 40.5723 57.536 40.0575 57.7807 39.4889C58.0253 38.9203 58.1555 38.3091 58.1639 37.6902ZM25.3413 15.1303L22.3411 17.5768C22.3411 17.3708 22.2509 17.1648 22.1865 16.933C21.7597 15.2069 21.5691 13.4309 21.62 11.6536C21.62 11.4218 21.62 11.2544 21.62 11.1643C21.6807 10.3146 21.8274 9.47335 22.0578 8.65331C22.56 6.85058 23.4098 5.69167 24.3756 5.44701C24.5126 5.43374 24.6506 5.43374 24.7876 5.44701C26.0249 5.62616 27.1408 6.28826 27.8909 7.28837C29.6861 9.37816 30.9418 11.8762 31.5479 14.5637C30.5618 14.0764 29.4601 13.8714 28.3647 13.9714C27.2693 14.0714 26.2229 14.4725 25.3413 15.1303Z" fill="#343434"/>
</svg>
